#!OML:ASF F:\VICON\USERDATA\INSTALL\rory3\rory3.ASF
:FULLY-SPECIFIED
:DEGREES
391
root 3.558 16.8962 -0.0476564 8.21663 -1.15188 1.46497
lowerback -1.41517 -0.152775 -1.08393
upperback 1.9746 -0.127435 -1.83292
thorax 2.81872 -0.0656755 -1.27997
lowerneck -7.47943 10.6186 6.51774
upperneck 51.3809 15.1992 1.9027
head 23.8831 7.12917 2.98191
rclavicle 1.98785e-016 -5.1684e-015
rhumerus -12.4603 10.8913 -84.9589
rradius 98.2072
rwrist -52.9057
rhand -2.67288 -41.6233
rfingers 7.12502
rthumb 23.0279 -70.2676
lclavicle 1.98785e-016 -5.1684e-015
lhumerus 10.9624 -15.7164 68.5961
lradius 67.9275
lwrist 69.368
lhand -26.2125 -15.6462
lfingers 7.12502
lthumb 0.340461 14.3333
rfemur -51.6321 8.35752 15.1012
rtibia 73.9665
rfoot 14.3431 -0.133181
rtoes -23.3639
lfemur -26.8862 -4.64829 -28.8093
ltibia 40.7733
lfoot -19.0601 16.1834
ltoes 13.0818
392
root 3.54769 16.8892 -0.0580903 8.05952 -1.35247 1.38671
lowerback -1.22138 -0.0441381 -1.06536
upperback 2.04976 0.0139889 -1.8262
thorax 2.78894 0.00522251 -1.27787
lowerneck -7.31294 10.5921 6.5754
upperneck 51.3683 15.1663 1.85367
head 23.824 7.13147 2.92005
rclavicle 9.93923e-016 -1.19271e-015
rhumerus -12.597 10.7567 -85.1275
rradius 98.0056
rwrist -52.8008
rhand -1.93176 -42.0643
rfingers 7.12502
rthumb 23.7388 -70.6181
lclavicle 9.93923e-016 -1.19271e-015
lhumerus 10.6362 -15.5639 69.0619
lradius 67.9345
lwrist 69.3368
lhand -26.5907 -15.9099
lfingers 7.12502
lthumb -0.0247544 14.0698
rfemur -51.6129 8.62343 15.2194
rtibia 74.0313
rfoot 14.4038 -0.192128
rtoes -22.9671
lfemur -26.8751 -4.52315 -28.7148
ltibia 40.9828
lfoot -19.1131 16.2736
ltoes 13.2301
393
root 3.53759 16.8725 -0.0711417 8.21542 -1.46683 1.50707
lowerback -1.34884 0.0259998 -1.22437
upperback 1.99552 0.11505 -1.88403
thorax 2.80635 0.052883 -1.24449
lowerneck -7.12384 10.5287 6.56806
upperneck 51.513 15.0161 1.99436
head 23.8559 7.09275 2.95964
rclavicle 1.2921e-015 8.34896e-015
rhumerus -12.6483 10.6349 -85.3332
rradius 97.6245
rwrist -52.7393
rhand -1.69166 -42.6103
rfingers 7.12502
rthumb 23.9691 -71.1341
lclavicle 1.2921e-015 8.34896e-015
lhumerus 10.3376 -15.504 69.4614
lradius 67.8413
lwrist 69.232
lhand -26.7781 -16.1404
lfingers 7.12502
lthumb -0.205797 13.8392
rfemur -52.0374 8.74557 15.0716
rtibia 74.1956
rfoot 14.5386 -0.211552
rtoes -22.7517
lfemur -27.2167 -4.43526 -28.8155
ltibia 41.1645
lfoot -19.0405 16.2926
ltoes 13.0273
394
root 3.53562 16.8608 -0.0768932 8.28624 -1.45917 1.70484
lowerback -1.33996 -0.0503388 -1.40326
upperback 2.0696 0.0203601 -1.91308
thorax 2.87664 0.00199387 -1.178
lowerneck -7.47503 10.6057 6.33374
upperneck 51.6349 15.1425 2.13867
head 24.051 7.08477 3.15299
rclavicle 8.94531e-016 1.66979e-014
rhumerus -12.4318 10.7691 -85.5579
rradius 97.2793
rwrist -52.7497
rhand -2.18905 -42.4615
rfingers 7.12502
rthumb 23.4921 -71.0472
lclavicle 8.94531e-016 1.66979e-014
lhumerus 10.2715 -15.0974 69.7521
lradius 67.6666
lwrist 69.1185
lhand -26.7101 -16.2472
lfingers 7.12502
lthumb -0.140078 13.7325
rfemur -52.2503 8.67078 14.8521
rtibia 74.3625
rfoot 14.4596 -0.140324
rtoes -22.9153
lfemur -27.3784 -4.45304 -29.031
ltibia 41.2885
lfoot -19.0506 16.3453
ltoes 12.8487
